PathFileType	4	(X/Y/Z)	pose_F01_0-83.trc
DataRate	CameraRate	NumFrames	NumMarkers	Units	OrigDataRate	OrigDataStartFrame	OrigNumFrames
30	30	6	21	m	30	47	83
Frame#	Time	CHip			RHip			RKnee			RAnkle			RBigToe			RSmallToe			RHeel			LHip			LKnee			LAnkle			LBigToe			LSmallToe			LHeel			Neck			Nose			RShoulder			RElbow			RWrist			LShoulder			LElbow			LWrist			
		X1	Y1	Z1	X2	Y2	Z2	X3	Y3	Z3	X4	Y4	Z4	X5	Y5	Z5	X6	Y6	Z6	X7	Y7	Z7	X8	Y8	Z8	X9	Y9	Z9	X10	Y10	Z10	X11	Y11	Z11	X12	Y12	Z12	X13	Y13	Z13	X14	Y14	Z14	X15	Y15	Z15	X16	Y16	Z16	X17	Y17	Z17	X18	Y18	Z18	X19	Y19	Z19	X20	Y20	Z20	X21	Y21	Z21	
47	1.5666666666666667	-0.25059647365135873	1.887257416896632	-0.5022486362685636	-0.2683666477596289	1.8849334861566363	-0.44730097526650403	-0.28318763015691334	1.7175546368332602	-0.44061403375982316													-0.23182041236886122	1.8888139343581407	-0.5573855608736453	-0.22383419795657958	1.7371655562151576	-0.5747074752087022	-0.2195804016545533	1.587313230255398	-0.5381143992948569	-0.22455365365763771	1.5590699232850131	-0.6088844994167104	-0.21358145264558062	1.5681187499503975	-0.6212702974521396	-0.22669687492434057	1.584286569961312	-0.5129991779677385	-0.24392824098608606	2.057983530598284	-0.5311269864747252	-0.2432191246525595	2.1360255569995408	-0.5834358361493858	-0.26476790069549033	2.063242254203545	-0.46456389186458463	-0.31191666094194503	2.060541864501927	-0.4998024266435405	-0.30312388839093946	2.1403736464401995	-0.534606825137653	-0.22430145492571876	2.0568445647421933	-0.6092108195412592	-0.17818618781184642	2.057831846864448	-0.7632996766425085	-0.1860375649636408	2.12388547973252	-0.7527035351469752
48	1.6	-0.2550193080535232	1.8785573634756876	-0.48788091735213696	-0.27058418628992437	1.8758661829509127	-0.4346622649149577	-0.2884007685523096	1.7129334195219394	-0.4359641937044758													-0.23650983076608456	1.8807517175304387	-0.5430031125814406	-0.2262833928452166	1.7294353024969256	-0.5928858301058435	-0.2218400684656502	1.5904253420874224	-0.536290801547942	-0.22669241390525602	1.561267940408646	-0.6072227550177758	-0.21557223853990637	1.5700982245153037	-0.6196541131303607	-0.22669687492434057	1.584286569961312	-0.5129991779677385	-0.24955291228777474	2.050247053228015	-0.521441925851788	-0.24779611345002958	2.1156235761133337	-0.5933797862376529	-0.2710349946468188	2.051977337851193	-0.4562625904551393	-0.3040995043990371	2.016830215007885	-0.49648859453984506	-0.30968616058521764	2.0831646896046996	-0.5277007053561995	-0.22921651965227577	2.051806321501551	-0.5973476102639781	-0.1980911972695588	2.030742164912526	-0.7357906678760358	-0.19276987785020386	2.098090069532988	-0.7421904366544623
49	1.6333333333333333	-0.25417428613434134	1.854310198599508	-0.4545949274216879	-0.2685597955640465	1.8513712563825782	-0.4067148282316836	-0.2884007685523096	1.7129334195219394	-0.4359641937044758													-0.23818923259584662	1.8577181431218939	-0.5079584051696608	-0.2316748687457356	1.7179514219145282	-0.6076013859849853	-0.22773062337206182	1.5908750954452044	-0.5344968468937807	-0.22574814745993196	1.5569202062857443	-0.6119069924829752	-0.21761375888254123	1.56756187969833	-0.6254843638418285	-0.23127605594508535	1.583858544954603	-0.5076967085998365	-0.2564984273494091	2.0274306380647533	-0.5120978282228071	-0.2558411595120406	2.0915650010347724	-0.5866107890170775	-0.278822742510082	2.025832127220941	-0.4487561644809192	-0.29628234785612917	1.973118565513843	-0.49317476243614966	-0.3162484327794959	2.0259557327691997	-0.520794585574746	-0.2346115280062343	2.0279486366522663	-0.5820195802810859	-0.22634057801094534	1.9765752018141725	-0.6807092440640446	-0.197839451119097	2.0340532917021847	-0.736005518768857
50	1.6666666666666667	-0.25723563309096215	1.8243639212250893	-0.4419831249402698	-0.27482030753064457	1.8229612031242741	-0.3812753691482286	-0.2884007685523096	1.7129334195219394	-0.4359641937044758													-0.24342041438985926	1.8270477686040005	-0.4935512458381386	-0.24374177699682323	1.7032506110251253	-0.6065555478046614	-0.22798738345119623	1.5857719704881195	-0.5251843747634715	-0.22372503647645173	1.5563602452493026	-0.6223104462552003	-0.21694805798730152	1.5687864189793495	-0.6225693377555152	-0.23127605594508535	1.583858544954603	-0.5076967085998365	-0.2602656072446692	2.000179662044709	-0.4996545710329723	-0.25573650903946527	2.0592395080709816	-0.5867791943327911	-0.2863749980875502	1.999544407108821	-0.4321406168881236	-0.2998944829076232	1.9146229912750352	-0.418191286145213	-0.32281070497377407	1.9687467759336998	-0.5138884657932924	-0.23327052497709597	1.999217569266807	-0.5701744700801405	-0.22409285531365536	1.9370148515442216	-0.6222027210774672	-0.20670682763330567	1.9769165884909747	-0.7085785556562089
51	1.7	-0.2608546651190993	1.8166093608792901	-0.42781877747687513	-0.2757542668937096	1.8140066712137053	-0.3742869964579553	-0.2884007685523096	1.7129334195219394	-0.4359641937044758													-0.24535944406720422	1.8200811347630916	-0.48134282226277425	-0.24469104613215473	1.6988250418706299	-0.6008306768447812	-0.23102999483367334	1.5853138486320555	-0.5266008540877961	-0.22535468186557225	1.5560196643547022	-0.6205479344121605	-0.21882697085801422	1.567743332369609	-0.620082100223898	-0.23127605594508535	1.583858544954603	-0.5076967085998365	-0.26207841026619494	1.9873775303893162	-0.4938987239385443	-0.26384642648252704	2.0419065251072794	-0.5993003433098917	-0.2860302463782532	1.986120641337226	-0.41973219537203943	-0.3038256118661287	1.8896828412077018	-0.3944534616735328	-0.32937297716805225	1.9115378190982	-0.5069823460118389	-0.23418712886199855	1.9881556576880242	-0.5703381175943834	-0.22184513261636538	1.8974545012742707	-0.5636961980908899	-0.2155742041475143	1.919779885279765	-0.6811515925435607
52	1.7333333333333334	-0.257149328691315	1.8199502941459997	-0.43619602142643765	-0.2736158942823312	1.8158216924051669	-0.3716726373436799	-0.2884007685523096	1.7129334195219394	-0.4359641937044758													-0.24140718471470826	1.8252904476386083	-0.49024732577335395	-0.24566485596402565	1.7002454200250652	-0.5957450299992689	-0.22891053105005335	1.5850404274356544	-0.5286456593409093	-0.22370840738954528	1.555961524690447	-0.6223008886785512	-0.21688192609620252	1.5683386935165071	-0.6225794886558288	-0.23127605594508535	1.583858544954603	-0.5076967085998365	-0.26146799862032727	1.9934303878258455	-0.49355272613714796	-0.2698349016702214	2.04226128758331	-0.5914120663060728	-0.28401191419594235	1.990271564071818	-0.40735992854948433	-0.30084846829227674	1.8997920646435476	-0.37431444173583805	-0.32795375380444125	1.9570706390926365	-0.488421890821712	-0.23444783030014557	1.99693125156441	-0.5737763393390439	-0.2193292647959645	1.908009887581914	-0.5791287407140959	-1.2901925430643835	1.8342388738065474	0.40005648617916234
